# xmcd
#
# Track frame offsets:
#	225
#	17301
#	28551
#	45255
#	58784
#	73990
#	93400
#	109795
#	123161
#	139131
#	155260
#	166294
#	182324
#	196374
#
# Disc length: 2833 seconds
#
# Revision: 1
# Processed by: cddbd v1.4PL0 Copyright (c) Steve Scherf et al.
# Submitted via: audiograbber 1.81.02
#
DISCID=ae0b0e0e
DTITLE=bla - Verrückte Party Knaller cd2
DYEAR=1900
DGENRE=
TTITLE0=Dj Charly - Anton aus Tirol
TTITLE1=Klaus Densow - Fauen sind Schweine
TTITLE2=die Partygeier - der Hammer
TTITLE3=Alex - ich vermiss dich... wie die Hölle
TTITLE4=König Bensah - ein Herz aus Gold
TTITLE5=Powerstrip - Hands up
TTITLE6=Tops - das geht mir alles so am Arsch vorbei
TTITLE7=Medium Terzett - wer hat die Kokosnuss geklaut
TTITLE8=Hermann Hahn - gimme more Huhn
TTITLE9=das Guido - 100 Liter Bier
TTITLE10=die drei Besoffkis - auf und Nieder
TTITLE11=Playa Party girl - 10 nackte Friseusen
TTITLE12=Tops - jetzt geht's auf
TTITLE13=die Partygeier - zeig doch mal die Möpse
EXTD=
EXTT0=
EXTT1=
EXTT2=
EXTT3=
EXTT4=
EXTT5=
EXTT6=
EXTT7=
EXTT8=
EXTT9=
EXTT10=
EXTT11=
EXTT12=
EXTT13=
PLAYORDER=
